<?xml version="1.0" standalone="no"?>
<!DOCTYPE svg PUBLIC "-//W3C//DTD SVG 20010904//EN"
 "http://www.w3.org/TR/2001/REC-SVG-20010904/DTD/svg10.dtd">
<svg version="1.0" xmlns="http://www.w3.org/2000/svg"
 width="546.000000pt" height="457.000000pt" viewBox="0 0 546.000000 457.000000"
 preserveAspectRatio="xMidYMid meet">

<g transform="translate(0.000000,457.000000) scale(0.100000,-0.100000)"
fill="#000000" stroke="none">
<path d="M2356 2603 c-16 -4 -18 -13 -12 -101 3 -54 9 -204 12 -334 l6 -238
49 0 c27 0 49 3 49 8 0 4 5 106 10 227 5 121 10 270 11 330 l2 110 -54 2 c-30
0 -62 -1 -73 -4z"/>
<path d="M2698 2603 l-138 -4 0 -28 c0 -57 12 -93 29 -87 63 20 132 36 178 42
l54 6 -5 -128 c-3 -71 -8 -207 -11 -301 l-6 -173 75 0 76 0 -1 38 c0 20 -6
154 -13 297 -7 143 -10 263 -7 267 7 8 206 -7 234 -17 15 -6 17 0 17 44 l0 51
-172 -2 c-95 -1 -235 -4 -310 -5z"/>
</g>
</svg>
